<svg xmlns="http://www.w3.org/2000/svg" version="1.1" xmlns:xlink="http://www.w3.org/1999/xlink" xmlns:svgjs="http://svgjs.com/svgjs" width="1440" height="400" preserveAspectRatio="none" viewBox="0 0 1440 400"><g mask="url(&quot;#SvgjsMask1271&quot;)" fill="none"><path d="M1464 400L0 400 L0 277.15Q40.23 245.38, 72 285.6Q116.18 257.78, 144 301.96Q189.64 227.6, 264 273.24Q330.65 219.89, 384 286.54Q426.6 257.14, 456 299.74Q501.54 225.28, 576 270.83Q641.67 216.5, 696 282.18Q763.45 229.63, 816 297.09Q859.54 220.63, 936 264.17Q981.5 237.67, 1008 283.17Q1051 254.17, 1080 297.17Q1100.73 245.9, 1152 266.63Q1218.03 212.66, 1272 278.69Q1343.1 229.78, 1392 300.88Q1422.23 259.11, 1464 289.34z" fill="rgba(82, 137, 245, 1)"></path><path d="M1536 400L0 400 L0 300.03Q35.58 263.61, 72 299.19Q138.27 245.46, 192 311.72Q260.08 259.8, 312 327.88Q332.21 276.09, 384 296.3Q452.59 244.89, 504 313.49Q545.47 282.96, 576 324.43Q622.05 250.48, 696 296.52Q740.18 268.7, 768 312.89Q811.01 283.9, 840 326.92Q882.8 249.73, 960 292.53Q1008.14 268.67, 1032 316.81Q1061.6 274.41, 1104 304.01Q1134.27 262.28, 1176 292.55Q1252.17 248.73, 1296 324.9Q1345.95 254.85, 1416 304.8Q1469.87 238.67, 1536 292.54z" fill="rgba(80, 132, 158, 1)"></path><path d="M1512 400L0 400 L0 342.63Q24.56 295.19, 72 319.76Q149.01 276.77, 192 353.79Q221.84 311.63, 264 341.48Q315.44 272.93, 384 324.37Q435.5 303.88, 456 355.38Q481.91 309.29, 528 335.21Q582.66 269.88, 648 324.54Q695.99 300.53, 720 348.53Q774.67 283.2, 840 337.87Q869.01 294.88, 912 323.9Q963.87 303.76, 984 355.63Q1012.95 312.58, 1056 341.53Q1084.88 298.41, 1128 327.29Q1178.34 305.63, 1200 355.97Q1252.58 288.55, 1320 341.13Q1350.78 299.91, 1392 330.69Q1462.75 281.44, 1512 352.19z" fill="rgba(154, 204, 204, 0.91)"></path><path d="M1512 400L0 400 L0 379.53Q21.04 328.57, 72 349.61Q141.04 298.65, 192 367.7Q258.52 314.22, 312 380.73Q355.87 304.6, 432 348.47Q502.37 298.84, 552 369.2Q594.74 339.94, 624 382.68Q671.53 310.21, 744 357.74Q786.55 328.3, 816 370.85Q864.25 299.1, 936 347.35Q1002.61 293.96, 1056 360.56Q1098.43 331, 1128 373.43Q1174.14 299.58, 1248 345.72Q1290.68 316.4, 1320 359.09Q1391.1 310.19, 1440 381.29Q1470.59 339.88, 1512 370.47z" fill="rgba(212, 235, 238, 1)"></path><path d="M1488 400L0 400 L0 383.5Q72.21 335.71, 120 407.92Q173.91 341.83, 240 395.74Q267.02 350.76, 312 377.78Q387.18 332.95, 432 408.13Q462.05 366.18, 504 396.23Q558 330.23, 624 384.23Q672.69 360.92, 696 409.61Q738.16 331.77, 816 373.94Q862.03 347.97, 888 393.99Q954.68 340.68, 1008 407.36Q1030.54 357.9, 1080 380.44Q1121.35 349.79, 1152 391.14Q1220.9 340.04, 1272 408.95Q1292.59 357.54, 1344 378.13Q1387.34 349.47, 1416 392.8Q1458.52 363.31, 1488 405.83z" fill="rgba(238, 249, 252, 0.96)"></path></g><defs><mask id="SvgjsMask1271"><rect width="1440" height="400" fill="#ffffff"></rect></mask></defs></svg>